<mxfile host="app.diagrams.net" modified="2021-05-16T00:55:55.828Z" agent="5.0 (X11; CrOS aarch64 13816.64.0) AppleWebKit/537.36 (KHTML, like Gecko) Chrome/90.0.4430.100 Safari/537.36" etag="aq0aRQWtKGK9efO0GLkO" version="14.6.13" type="github">
  <diagram id="QTctSrDcp0v37fTCG3pZ" name="Page-1">
    <mxGraphModel dx="582" dy="383" grid="1" gridSize="10" guides="1" tooltips="1" connect="1" arrows="1" fold="1" page="1" pageScale="1" pageWidth="850" pageHeight="1100" math="0" shadow="0">
      <root>
        <mxCell id="0" />
        <mxCell id="1" parent="0" />
        <mxCell id="e5Z5D2AbTdH1WaJqWZPk-32" style="edgeStyle=orthogonalEdgeStyle;rounded=0;orthogonalLoop=1;jettySize=auto;html=1;exitX=0.5;exitY=1;exitDx=0;exitDy=0;exitPerimeter=0;entryX=0.5;entryY=0;entryDx=0;entryDy=0;" edge="1" parent="1" source="e5Z5D2AbTdH1WaJqWZPk-1" target="e5Z5D2AbTdH1WaJqWZPk-2">
          <mxGeometry relative="1" as="geometry" />
        </mxCell>
        <mxCell id="e5Z5D2AbTdH1WaJqWZPk-1" value="Start" style="strokeWidth=2;html=1;shape=mxgraph.flowchart.terminator;whiteSpace=wrap;" vertex="1" parent="1">
          <mxGeometry x="230" y="180" width="100" height="60" as="geometry" />
        </mxCell>
        <mxCell id="e5Z5D2AbTdH1WaJqWZPk-35" style="edgeStyle=orthogonalEdgeStyle;rounded=0;orthogonalLoop=1;jettySize=auto;html=1;exitX=0.5;exitY=1;exitDx=0;exitDy=0;entryX=0.576;entryY=-0.014;entryDx=0;entryDy=0;entryPerimeter=0;" edge="1" parent="1" source="e5Z5D2AbTdH1WaJqWZPk-2" target="e5Z5D2AbTdH1WaJqWZPk-3">
          <mxGeometry relative="1" as="geometry" />
        </mxCell>
        <mxCell id="e5Z5D2AbTdH1WaJqWZPk-2" value="Get number_1" style="shape=parallelogram;html=1;strokeWidth=2;perimeter=parallelogramPerimeter;whiteSpace=wrap;rounded=1;arcSize=12;size=0.23;" vertex="1" parent="1">
          <mxGeometry x="230" y="270" width="100" height="60" as="geometry" />
        </mxCell>
        <mxCell id="e5Z5D2AbTdH1WaJqWZPk-36" style="edgeStyle=orthogonalEdgeStyle;rounded=0;orthogonalLoop=1;jettySize=auto;html=1;exitX=0.5;exitY=1;exitDx=0;exitDy=0;entryX=0.5;entryY=0;entryDx=0;entryDy=0;entryPerimeter=0;" edge="1" parent="1" source="e5Z5D2AbTdH1WaJqWZPk-3" target="e5Z5D2AbTdH1WaJqWZPk-6">
          <mxGeometry relative="1" as="geometry" />
        </mxCell>
        <mxCell id="e5Z5D2AbTdH1WaJqWZPk-3" value="Get number_2" style="shape=parallelogram;html=1;strokeWidth=2;perimeter=parallelogramPerimeter;whiteSpace=wrap;rounded=1;arcSize=12;size=0.23;" vertex="1" parent="1">
          <mxGeometry x="220" y="370" width="100" height="60" as="geometry" />
        </mxCell>
        <mxCell id="e5Z5D2AbTdH1WaJqWZPk-27" style="edgeStyle=orthogonalEdgeStyle;rounded=0;orthogonalLoop=1;jettySize=auto;html=1;exitX=0.5;exitY=1;exitDx=0;exitDy=0;exitPerimeter=0;entryX=0.5;entryY=0;entryDx=0;entryDy=0;entryPerimeter=0;" edge="1" parent="1" source="e5Z5D2AbTdH1WaJqWZPk-6" target="e5Z5D2AbTdH1WaJqWZPk-7">
          <mxGeometry relative="1" as="geometry" />
        </mxCell>
        <mxCell id="e5Z5D2AbTdH1WaJqWZPk-29" style="edgeStyle=orthogonalEdgeStyle;rounded=0;orthogonalLoop=1;jettySize=auto;html=1;exitX=0;exitY=0.5;exitDx=0;exitDy=0;exitPerimeter=0;entryX=0.5;entryY=0;entryDx=0;entryDy=0;" edge="1" parent="1" source="e5Z5D2AbTdH1WaJqWZPk-6" target="e5Z5D2AbTdH1WaJqWZPk-8">
          <mxGeometry relative="1" as="geometry" />
        </mxCell>
        <mxCell id="e5Z5D2AbTdH1WaJqWZPk-6" value="if integer_1 &amp;gt; integer_2" style="strokeWidth=2;html=1;shape=mxgraph.flowchart.decision;whiteSpace=wrap;" vertex="1" parent="1">
          <mxGeometry x="220" y="470" width="100" height="100" as="geometry" />
        </mxCell>
        <mxCell id="e5Z5D2AbTdH1WaJqWZPk-30" style="edgeStyle=orthogonalEdgeStyle;rounded=0;orthogonalLoop=1;jettySize=auto;html=1;exitX=0;exitY=0.5;exitDx=0;exitDy=0;exitPerimeter=0;entryX=0.5;entryY=0;entryDx=0;entryDy=0;" edge="1" parent="1" source="e5Z5D2AbTdH1WaJqWZPk-7" target="e5Z5D2AbTdH1WaJqWZPk-9">
          <mxGeometry relative="1" as="geometry" />
        </mxCell>
        <mxCell id="e5Z5D2AbTdH1WaJqWZPk-31" style="edgeStyle=orthogonalEdgeStyle;rounded=0;orthogonalLoop=1;jettySize=auto;html=1;exitX=0.5;exitY=1;exitDx=0;exitDy=0;exitPerimeter=0;entryX=0.5;entryY=0;entryDx=0;entryDy=0;" edge="1" parent="1" source="e5Z5D2AbTdH1WaJqWZPk-7" target="e5Z5D2AbTdH1WaJqWZPk-10">
          <mxGeometry relative="1" as="geometry" />
        </mxCell>
        <mxCell id="e5Z5D2AbTdH1WaJqWZPk-7" value="if integer_1 &amp;lt; integer_2" style="strokeWidth=2;html=1;shape=mxgraph.flowchart.decision;whiteSpace=wrap;" vertex="1" parent="1">
          <mxGeometry x="220" y="620" width="100" height="100" as="geometry" />
        </mxCell>
        <mxCell id="e5Z5D2AbTdH1WaJqWZPk-8" value="Print(&quot;integer_1 &amp;lt; integer_2&quot;)" style="shape=parallelogram;html=1;strokeWidth=2;perimeter=parallelogramPerimeter;whiteSpace=wrap;rounded=1;arcSize=12;size=0.23;" vertex="1" parent="1">
          <mxGeometry x="50" y="940" width="100" height="60" as="geometry" />
        </mxCell>
        <mxCell id="e5Z5D2AbTdH1WaJqWZPk-9" value="Print(&quot;integer_1 &amp;gt; integer_2&quot;)" style="shape=parallelogram;html=1;strokeWidth=2;perimeter=parallelogramPerimeter;whiteSpace=wrap;rounded=1;arcSize=12;size=0.23;" vertex="1" parent="1">
          <mxGeometry x="150" y="940" width="100" height="60" as="geometry" />
        </mxCell>
        <mxCell id="e5Z5D2AbTdH1WaJqWZPk-10" value="Print(&quot;integer_1 = integer_2&quot;" style="shape=parallelogram;html=1;strokeWidth=2;perimeter=parallelogramPerimeter;whiteSpace=wrap;rounded=1;arcSize=12;size=0.23;" vertex="1" parent="1">
          <mxGeometry x="260" y="940" width="100" height="60" as="geometry" />
        </mxCell>
      </root>
    </mxGraphModel>
  </diagram>
</mxfile>
